<?xml version="1.0" encoding="utf-8"?>
<!-- Generator: Adobe Illustrator 16.0.0, SVG Export Plug-In . SVG Version: 6.00 Build 0)  -->
<!DOCTYPE svg PUBLIC "-//W3C//DTD SVG 1.1//EN" "http://www.w3.org/Graphics/SVG/1.1/DTD/svg11.dtd">
<svg version="1.1" id="Layer_1" xmlns="http://www.w3.org/2000/svg" xmlns:xlink="http://www.w3.org/1999/xlink" x="0px" y="0px"
	 width="50px" height="50px" viewBox="0 0 50 50" enable-background="new 0 0 50 50" xml:space="preserve">
<g>
	<path fill="#FFFFFF" d="M1.03,6.488v0.449v0.201v0.168v0.127c0,8.89,0.109,19.742,4.021,26.897
		c3.874,7.093,9.702,10.189,17.813,14.497l1.459,0.774L25.05,50l0.862-0.502l1.568-0.83c8.416-4.469,13.721-7.359,17.597-14.457
		c3.755-6.861,3.886-17.187,3.886-25.852V8.258V7.339V6.885l0.008-1.545l-0.74-0.364C42.461,2.118,32.723,0.015,25.188,0h-0.125
		h-0.126C17.645,0.015,7.779,2.095,1.981,4.904L1.029,5.362L1.03,6.488z"/>
	<polygon fill="#003468" points="24.986,48.914 24.966,48.898 24.971,48.891 25.012,48.92 25.006,48.928 	"/>
	<path fill="#002857" d="M24.983,48.962l-0.02-0.013l-0.302-0.182c-8.933-4.763-14.932-7.625-18.918-14.92
		c-3.854-7.101-3.867-17.93-3.879-26.565v-0.9v-0.44l0.024-0.011l0.021-0.01l0.35-0.168C8.09,2.937,17.723,0.902,24.866,0.88h0.125
		h0.123h0.002c7.132,0.021,16.602,1.917,22.594,4.875l0.39,0.191v0.027v0.022v0.387V7.51c-0.013,8.6-0.041,19.301-3.865,26.338
		c-3.984,7.295-9.981,10.157-18.907,14.918l-0.321,0.211L24.983,48.962z"/>
	<path fill="#FFFFFF" d="M24.986,48.914l0.006-0.008L24.986,48.914z"/>
	<path fill="#B0B7BC" d="M25.114,2.2h-0.122h-0.125C18.116,2.208,8.78,4.161,3.184,6.774v0.508
		C3.173,15.897,3.28,26.621,6.903,33.216c3.715,6.802,9.25,9.53,18.089,14.233c8.838-4.703,14.373-7.432,18.085-14.233
		c3.593-6.534,3.716-17.129,3.704-25.705v-0.74C41.051,4.032,31.877,2.208,25.114,2.2"/>
	<path fill="#FFFFFF" d="M25.014,36.762c0,0-0.411,1.854-2.261,2.182c0,0,1.313,1.964,2.261,1.964c0.98,0,2.312-1.964,2.312-1.964
		C25.511,38.666,25.014,36.762,25.014,36.762"/>
	<path fill="#FFFFFF" d="M11.171,22.962c0,0-1.854-0.41-2.183-2.261c0,0-1.961,1.312-1.961,2.261c0,0.98,1.961,2.312,1.961,2.312
		C9.266,23.459,11.171,22.962,11.171,22.962"/>
	<path fill="#FFFFFF" d="M41.002,20.64c-0.277,1.816-2.182,2.313-2.182,2.313s1.854,0.411,2.182,2.262c0,0,1.961-1.313,1.961-2.262
		C42.963,21.972,41.002,20.64,41.002,20.64"/>
	<path fill="#FFFFFF" d="M36.889,31.902l-4.197-6.447l3.899,0.003c2.677,0,2.894,1.769,2.831,2.667
		c1.633-1.238,0.82-4.478-1.883-4.529c-1.029-0.02-3.182-0.021-6.021-0.027l-0.41-0.614l0.418-0.602
		c2.822,0.005,5.234-0.016,6.037-0.03c2.647-0.046,3.498-3.271,1.865-4.509c0.063,0.899-0.107,2.662-2.785,2.662l-3.91-0.015
		l4.185-6.495l3.899-3.582H27.617c0.373-1.769,1.82-1.927,2.6-1.873c-1.234-1.625-4.544-0.816-4.57,1.864l-0.028,6.018l-0.58,0.871
		l-0.588-0.92l-0.028-5.994c-0.025-2.679-3.29-3.463-4.523-1.838c0.777-0.054,2.199,0.104,2.572,1.873H9.234l3.905,3.564
		l4.218,6.513h-3.956c-2.678,0-2.878-1.732-2.816-2.632c-1.632,1.239-0.777,4.479,1.909,4.51c1.323,0.015,3.161,0.024,5.956,0.03
		l0.447,0.601l-0.385,0.6c-2.94,0.016-4.756,0.016-6.142,0.046c-2.704,0.061-3.355,3.277-1.801,4.586
		c-0.062-0.9,0.062-2.693,2.74-2.693l4.002-0.016l-4.133,6.404L9.27,35.525h13.16c-0.384,1.735-1.792,1.894-2.564,1.841
		c1.228,1.616,4.525,0.795,4.551-1.81l0.008-5.893l0.612-0.975l0.585,0.955l0.046,5.931c0.031,2.563,3.259,3.383,4.468,1.79
		c-0.772,0.053-2.181-0.104-2.563-1.842H40.79L36.889,31.902z"/>
	<path fill="#FFFFFF" d="M25.042,9.112c0,0,0.411-1.853,2.261-2.182c0,0-1.312-1.962-2.261-1.962c-0.98,0-2.312,1.962-2.312,1.962
		C24.545,7.207,25.042,9.112,25.042,9.112"/>
	<polygon fill="#002857" points="29.621,22.954 35.988,13.178 37.715,11.589 26.493,11.589 29.203,13.153 25.033,19.409 
		20.862,13.153 23.574,11.589 12.348,11.589 14.067,13.159 20.446,22.954 14.11,32.682 12.348,34.316 23.574,34.316 20.862,32.754 
		25.033,26.498 29.203,32.754 26.493,34.316 37.715,34.316 35.959,32.686 	"/>
</g>
</svg>

