<svg xmlns="http://www.w3.org/2000/svg" width="100" height="100" viewBox="0 0 100 100"><path fill="#59BDDE" d="M93.557 42.556c-3.354 0-6.16 2.39-6.805 5.557h-8.545a27.605 27.605 0 0 0-7.129-17.227l6.154-6.152a6.902 6.902 0 0 0 3.822 1.155 6.952 6.952 0 0 0 6.944-6.944A6.95 6.95 0 0 0 81.057 12c-3.83 0-6.945 3.116-6.945 6.944a6.9 6.9 0 0 0 1.158 3.825l-6.154 6.152a27.623 27.623 0 0 0-17.227-7.129v-8.545c3.166-.646 5.557-3.451 5.557-6.804 0-3.829-3.115-6.944-6.944-6.944s-6.944 3.116-6.944 6.944c0 3.353 2.39 6.158 5.556 6.804v8.545a27.622 27.622 0 0 0-17.227 7.129l-6.153-6.152a6.903 6.903 0 0 0 1.157-3.825A6.952 6.952 0 0 0 19.947 12C16.116 12 13 15.116 13 18.944a6.952 6.952 0 0 0 6.944 6.944 6.9 6.9 0 0 0 3.823-1.155l6.154 6.152a27.627 27.627 0 0 0-7.129 17.227h-8.543c-.645-3.167-3.451-5.557-6.804-5.557-3.829 0-6.944 3.115-6.944 6.944s3.116 6.944 6.944 6.944c3.353 0 6.158-2.391 6.804-5.555h8.544a27.619 27.619 0 0 0 7.129 17.225l-6.154 6.154a6.89 6.89 0 0 0-3.824-1.158A6.952 6.952 0 0 0 13 80.054C13 83.883 16.116 87 19.944 87c3.829 0 6.944-3.115 6.944-6.943a6.89 6.89 0 0 0-1.156-3.822l6.154-6.155a27.61 27.61 0 0 0 17.225 7.129v8.545c-3.166.646-5.556 3.451-5.556 6.804 0 3.829 3.115 6.944 6.944 6.944s6.944-3.115 6.944-6.944c0-3.353-2.391-6.158-5.557-6.804v-8.545a27.623 27.623 0 0 0 17.227-7.129l6.152 6.155a6.888 6.888 0 0 0-1.156 3.822c0 3.828 3.115 6.943 6.945 6.943C84.883 87 88 83.885 88 80.057c0-3.83-3.115-6.945-6.943-6.945-1.414 0-2.728.43-3.826 1.156l-6.151-6.152a27.622 27.622 0 0 0 7.129-17.225h8.545c.646 3.164 3.451 5.555 6.804 5.555 3.83 0 6.944-3.115 6.944-6.944s-3.117-6.946-6.945-6.946z"/><path fill="#FFF" d="M81.057 14.778a4.171 4.171 0 0 1 4.166 4.167 4.171 4.171 0 0 1-4.166 4.167 4.172 4.172 0 0 1-4.168-4.167 4.172 4.172 0 0 1 4.168-4.167zM19.944 23.111a4.172 4.172 0 0 1-4.167-4.167 4.172 4.172 0 0 1 4.167-4.167 4.171 4.171 0 0 1 4.167 4.167 4.171 4.171 0 0 1-4.167 4.167zM7.444 53.667c-2.297 0-4.167-1.869-4.167-4.167s1.869-4.167 4.167-4.167 4.167 1.869 4.167 4.167-1.869 4.167-4.167 4.167zM19.944 84.223a4.172 4.172 0 0 1-4.167-4.166 4.172 4.172 0 0 1 4.167-4.168 4.172 4.172 0 0 1 4.167 4.168 4.171 4.171 0 0 1-4.167 4.166zM46.333 6.444c0-2.297 1.869-4.167 4.167-4.167s4.167 1.869 4.167 4.167-1.869 4.167-4.167 4.167-4.167-1.869-4.167-4.167zM54.667 92.557c0 2.297-1.869 4.166-4.167 4.166s-4.167-1.869-4.167-4.166c0-2.299 1.869-4.168 4.167-4.168s4.167 1.869 4.167 4.168zM47.722 63.389h5.555v5.555h-5.555zM57.354 52.335c-2.367 1.853-4.076 3.192-4.076 6.888h-5.555c0-6.402 3.586-9.21 6.208-11.262 2.373-1.858 3.516-2.864 3.516-5.405 0-4.868-2.076-6.944-6.944-6.944s-6.944 2.076-6.944 6.944H38c0-7.944 4.556-12.5 12.5-12.5 7.943 0 12.5 4.556 12.5 12.5 0 5.359-3.131 7.809-5.646 9.779zM81.057 75.889a4.171 4.171 0 0 1 4.166 4.168 4.17 4.17 0 0 1-4.166 4.166 4.171 4.171 0 0 1-4.168-4.166 4.172 4.172 0 0 1 4.168-4.168zM93.557 53.667c-2.299 0-4.168-1.869-4.168-4.167s1.869-4.167 4.168-4.167c2.297 0 4.166 1.869 4.166 4.167s-1.869 4.167-4.166 4.167z"/></svg>