<svg xmlns="http://www.w3.org/2000/svg" width="100" height="100" viewBox="82 -3 100 100"><path fill="#5ABDDE" d="M158.953 15.062h2.801l.849-3.077h3.192s.08 45.947.08 68.98H97.591v-68.98h3.271c.207.886.449 1.975.697 3.039h2.923c.213-1.04.435-2.023.643-3.039h3.213c.168.928.314 1.833.53 3.027l2.943.137c.275-1.175.425-2.153.661-3.163h3.553c0 3.643-.034 17.974-.034 17.974l14.365-7.036h2.251l14.673 7.066-.109-18.004h3.375l1.036 2.969h2.927l.565-2.969h3.119l.76 3.076zm-16.046 61.56c0-3.664.024-7.058-.008-10.452-.022-2.409-1.494-3.973-3.503-4.802-5.232-2.161-10.564-2.221-15.825-.033-1.863.774-3.288 2.262-3.407 4.282-.211 3.583-.06 7.187-.06 11.005h22.803zm-10.008-42.487v7.837h6.134v-7.837h-6.134zm-.031 10.904l.032 7.867 6.167.028v-7.895h-6.199zm-2.85-10.904H124.2v7.837h5.818v-7.837zm0 18.771v-7.867H124.2v7.867h5.818zm-21.47-17.698v-7.85h-3.686v7.85h3.686zm46.227-7.85v7.85h3.8v-7.85h-3.8zm-46.227 25.548h-3.686v8.287h3.686v-8.287zm46.227 8.286h3.8v-8.287h-3.8v8.287z"/><path fill="#FFF" d="M104.862 27.358h3.686v7.85h-3.686zM104.862 52.906h3.686v8.287h-3.686zM124.199 34.135h5.818v7.837h-5.818zM132.899 34.135h6.134v7.837h-6.134zM132.868 45.039h6.199v7.894h-6.199zM124.199 45.039h5.818v7.867h-5.818zM154.775 27.358h3.8v7.85h-3.8zM154.775 52.906h3.8v8.287h-3.8z"/></svg>