<svg xmlns="http://www.w3.org/2000/svg" viewBox="0 0 220 200"><path fill="#9ea2a2" d="M93.216 163.479l16.837-25.262 16.843 25.262-16.841 9.711-16.839-9.711zm0-129.172l16.839-9.715 16.841 9.714-16.843 25.262-16.837-25.261zM1.465 12.493l26.842 24.506 40.314 61.894-40.041 61.471L1.72 185.29h216.641l-26.815-24.901-40.057-61.497 40.235-61.779 26.812-24.62H1.465z"/><path fill="#FFF" d="M118.012 173.393l-7.958 4.592-7.956-4.592-14.792-8.533 22.748-34.123 22.75 34.123-14.792 8.533zM102.098 24.389l7.956-4.59 7.958 4.591 14.793 8.532-22.75 34.128-22.749-34.127 14.792-8.534zm86.244 138.688l-41.805-64.184 42.004-64.494 19.34-17.755H12.167L31.496 34.29l42.081 64.606-41.8 64.163-19.482 18.082h195.497l-19.45-18.064z"/><path fill="#0c2340" d="M141.582 98.893l43.762-67.191 11.879-10.908h-77.137l18.629 10.747-28.661 42.99-28.657-42.99 18.627-10.747H22.869l11.817 10.789 43.843 67.31-43.552 66.861-12.108 11.235h77.155l-18.627-10.747 28.657-42.989 28.661 42.989-18.629 10.747h77.137l-12.077-11.216z"/></svg>