<svg xmlns="http://www.w3.org/2000/svg" xmlns:xlink="http://www.w3.org/1999/xlink" width="535.361" height="139.786" viewBox="0 0 535.361 139.786"><defs><path id="a" d="M0 0h535.361v139.786H0z"/></defs><clipPath id="b"><use xlink:href="#a" overflow="visible"/></clipPath><path clip-path="url(#b)" fill="#FFF" d="M154.032 72.913c4.477.182 8.953-2.104 11.905-5.529l18.477-21.047-15.716-19.622c-5.332-6.66-7.046-7.523-14.666-7.905v-2.572h32.764v2.572c-5.332 0-7.81.578-7.81 2.956 0 1.047.571 2.094 2.571 4.57l9.714 12.096 8.477-9.43c3.619-4.002 4.856-6.098 4.856-7.428 0-2.095-1.521-2.764-6.567-2.764v-2.572h24.761v2.572c-7.24.094-9.528 1.336-15.91 8.667l-12.665 14.572 19.715 24.382c4.192 5.146 6.766 6.284 12.382 6.481v2.566h-29.619v-2.566c4.094.092 6.096-.484 6.096-2.482 0-1.048-.763-2.476-2.381-4.382l-13.051-16.09-12.666 14.376c-2.856 3.334-3.81 4.668-3.81 5.905 0 1.907 1.906 2.954 7.335 2.673v2.566h-24.192v-2.565z"/><defs><path id="c" d="M0 0h535.361v139.786H0z"/></defs><clipPath id="d"><use xlink:href="#c" overflow="visible"/></clipPath><path clip-path="url(#d)" fill="#FFF" d="M227.583 72.911c6.379-.099 7.622-1.148 10.288-8.577l17.24-47.238-.763-2.38h10.665l18.57 49.618c2.768 7.428 3.717 8.577 9.718 8.577v2.569h-28.288v-2.569c7.522 0 9.62-.765 9.62-3.53 0-.95-.38-2.573-1.334-5.047l-4.569-11.809h-21.812l-4.667 12.672c-.666 1.804-.952 3.044-.952 4 0 2.757 1.903 3.996 9.522 3.714v2.569h-23.238v-2.569zm39.333-25.147l-9.139-24.095-9.048 24.095h18.187z"/><defs><path id="e" d="M0 0h535.361v139.786H0z"/></defs><clipPath id="f"><use xlink:href="#e" overflow="visible"/></clipPath><path clip-path="url(#f)" fill="#FFF" d="M296.998 26.146c-2.666-6.575-3.712-7.337-9.812-7.337v-2.572h29.338v2.572c-7.812.094-9.146 2.096-9.146 4.094 0 1.245.479 3.146 1.529 5.717l14.377 35.333 14.001-33.713c1.72-4.094 2.192-5.909 2.192-7.337 0-3.137-2.476-4.094-8.576-4.094v-2.572h23.146v2.572c-6.761 0-8.002 3.524-11.046 10.86l-19.719 47.335h-5.804l-20.48-50.858z"/><defs><path id="g" d="M0 0h535.361v139.786H0z"/></defs><clipPath id="h"><use xlink:href="#g" overflow="visible"/></clipPath><path clip-path="url(#h)" fill="#FFF" d="M358.882 16.237h26.572v2.572c-6.383 0-8.193 1.429-8.193 8.194V64.05c0 7.142 1.334 9.042 8.193 8.861v2.569h-26.572v-2.569c7.521.184 7.813-2.769 7.813-8.192V25.958c0-5.148-1.243-7.239-7.813-7.148v-2.573z"/><defs><path id="i" d="M0 0h535.361v139.786H0z"/></defs><clipPath id="j"><use xlink:href="#i" overflow="visible"/></clipPath><path clip-path="url(#j)" fill="#FFF" d="M397.224 75.479v-2.566c7.71 0 9.615-1.246 9.615-6.578V25.287c0-6.286-3.142-6.477-9.615-6.477v-2.573h48.66l.865 14.296h-2.576l-.474-2.005c-1.905-7.808-3.427-8.003-9.524-8.003h-16.762v22.192h14.764c5.521 0 6.569-.668 7.144-7.24h2.568v19.149h-2.568c-.668-6.771-1.907-7.622-7.144-7.622h-14.764v17.33c0 5.905.76 6.858 5.619 6.858h10.573c9.615 0 11.521-1.332 14.093-10.665h2.571l-1.43 14.952h-51.615z"/><defs><path id="k" d="M0 0h535.361v139.786H0z"/></defs><clipPath id="l"><use xlink:href="#k" overflow="visible"/></clipPath><path clip-path="url(#l)" fill="#FFF" d="M479.549 63.479c0 8.188 1.05 9.714 9.715 9.434v2.567h-29.146v-2.567c8.003.28 8.854-1.912 8.854-8.191V26.525c0-6.193-1.047-7.715-8.854-7.715v-2.572c2.189 0 7.046-.38 13.623-.666 5.042-.187 9.71-.187 11.616-.187 19.239 0 25.813 8.379 25.813 17.047 0 7.046-4.002 12.188-12.003 15.523 1.526 1.047 5.618 5.048 7.146 6.569l6.188 6.189c8.474 8.484 14.952 12.292 22.858 13.146v2.667c-18.76.479-23.428-2.854-32.005-11.433l-5.041-5.04c-4.86-4.86-6.291-6.194-10.289-9.151-2.763.196-6.003.286-8.479 0v12.577h.004zm0-15.238c.667.094 2.476.285 3.046.285 12.663-.571 17.05-5.431 17.05-15.144 0-9.618-5.145-15.33-15.521-15.33-1.43 0-3.718.188-4.573.379l-.002 29.81z"/><defs><path id="m" d="M0 0h535.361v139.786H0z"/></defs><clipPath id="n"><use xlink:href="#m" overflow="visible"/></clipPath><path clip-path="url(#n)" fill="#FFF" d="M153.891 95.897h13.53v1.288c-3.529 0-4.19.763-4.19 4.093v12.813c0 6.334 4.233 9.244 10.185 9.244 5.288 0 10.238-2.287 10.238-9.342v-12.716c0-3.711-.706-4.093-4.57-4.093v-1.288h11.527v1.288c-3.62 0-4.329.763-4.329 4.093v13.246c0 7.476-5.766 11.761-14.437 11.761-9.046 0-13.908-4.334-13.908-12.091v-13.394c0-2.901-.757-3.615-4.046-3.615v-1.287z"/><defs><path id="o" d="M0 0h535.361v139.786H0z"/></defs><clipPath id="p"><use xlink:href="#o" overflow="visible"/></clipPath><path clip-path="url(#p)" fill="#FFF" d="M200.899 101.278v18.289c0 3.721.475 4.91 4.758 4.668v1.287h-11.379v-1.287c3.429.1 4.002-1.004 4.002-4.094V98.704c-1.146-.992-2.194-1.373-4.002-1.518v-1.288h8.621l21.241 22.437v-17.057c0-3.566-.574-4.142-4.715-4.092v-1.288h11.527v1.288c-3.191 0-4.193.576-4.193 4.191v24.438h-2.569l-23.291-24.537z"/><defs><path id="q" d="M0 0h535.361v139.786H0z"/></defs><clipPath id="r"><use xlink:href="#q" overflow="visible"/></clipPath><path clip-path="url(#r)" fill="#FFF" d="M236.225 95.897h13.288v1.288c-3.191 0-4.097.714-4.097 4.093v18.533c0 3.566.669 4.523 4.097 4.424v1.287h-13.288v-1.287c3.763.1 3.906-1.377 3.906-4.094v-19.385c0-2.574-.619-3.621-3.906-3.571v-1.288z"/><g><defs><path id="s" d="M0 0h535.361v139.786H0z"/></defs><clipPath id="t"><use xlink:href="#s" overflow="visible"/></clipPath><path clip-path="url(#t)" fill="#FFF" d="M257.144 100.853c-1.334-3.286-1.856-3.667-4.906-3.667v-1.288h14.666v1.288c-3.904.047-4.569 1.044-4.569 2.05 0 .617.238 1.565.763 2.859l7.188 17.668 7.001-16.865c.858-2.045 1.097-2.948 1.097-3.662 0-1.579-1.238-2.05-4.283-2.05v-1.288h11.573v1.288c-3.382 0-3.998 1.759-5.524 5.432l-9.862 23.668h-2.9l-10.244-25.433z"/></g><g><defs><path id="u" d="M0 0h535.361v139.786H0z"/></defs><clipPath id="v"><use xlink:href="#u" overflow="visible"/></clipPath><path clip-path="url(#v)" fill="#FFF" d="M287.353 125.522v-1.287c3.854 0 4.809-.619 4.809-3.281V100.42c0-3.141-1.573-3.233-4.809-3.233v-1.289h24.338l.427 7.146h-1.285l-.24-1.002c-.952-3.905-1.717-3.998-4.756-3.998h-8.385v11.098h7.379c2.761 0 3.286-.336 3.571-3.613h1.287v9.568h-1.287c-.33-3.381-.947-3.814-3.571-3.814h-7.379v8.678c0 2.945.379 3.42 2.804 3.42h5.29c4.812 0 5.765-.659 7.048-5.33h1.289l-.718 7.476h-25.812v-.005z"/></g><g><defs><path id="w" d="M0 0h535.361v139.786H0z"/></defs><clipPath id="x"><use xlink:href="#w" overflow="visible"/></clipPath><path clip-path="url(#x)" fill="#FFF" d="M329.285 119.519c0 4.099.526 4.862 4.858 4.717v1.287h-14.578v-1.287c4.007.146 4.433-.946 4.433-4.094v-19.101c0-3.095-.522-3.854-4.433-3.854v-1.288c1.103 0 3.527-.188 6.813-.331 2.527-.101 4.863-.101 5.813-.101 9.623 0 12.906 4.199 12.906 8.525 0 3.525-2 6.1-5.998 7.768.762.521 2.805 2.523 3.573 3.279l3.095 3.101c4.238 4.239 7.474 6.146 11.426 6.571v1.334c-9.377.238-11.717-1.43-15.998-5.717l-2.524-2.52c-2.432-2.43-3.146-3.1-5.144-4.57-1.387.09-3.002.137-4.241 0v6.281h-.001zm0-7.618c.334.053 1.239.145 1.524.145 6.336-.285 8.524-2.715 8.524-7.571 0-4.808-2.569-7.675-7.765-7.675-.715 0-1.854.097-2.285.195l.002 14.906z"/></g><g><defs><path id="y" d="M0 0h535.361v139.786H0z"/></defs><clipPath id="z"><use xlink:href="#y" overflow="visible"/></clipPath><path clip-path="url(#z)" fill="#FFF" d="M357.281 117.711h1.431c1.191 4.377 4.145 6.861 8.24 6.861 3.473 0 5.904-2.051 5.904-4.906 0-6.672-15.008-9.283-15.008-17.571 0-4.101 3.627-6.957 8.719-6.957 1.57 0 2.721.192 3.67.378.953.195 1.714.382 2.525.382.614 0 .95-.146 1.334-.567h1.191l1.047 7.383h-1.436c-1.424-3.768-4.375-6.053-7.756-6.053-3.052 0-4.668 1.813-4.668 3.903 0 6.383 15.047 8.291 15.047 17.483 0 4.906-4.146 8.236-10.237 8.236-3.569 0-5.052-.854-6.384-.854-.563 0-.952.141-1.289.516h-1.139l-1.191-8.234z"/></g><g><defs><path id="A" d="M0 0h535.361v139.786H0z"/></defs><clipPath id="B"><use xlink:href="#A" overflow="visible"/></clipPath><path clip-path="url(#B)" fill="#FFF" d="M382.601 95.897h13.287v1.288c-3.188 0-4.098.714-4.098 4.093v18.533c0 3.566.667 4.523 4.097 4.424v1.287h-13.286v-1.287c3.762.1 3.907-1.377 3.907-4.094v-19.385c0-2.574-.622-3.621-3.907-3.571v-1.288z"/></g><g><defs><path id="C" d="M0 0h535.361v139.786H0z"/></defs><clipPath id="D"><use xlink:href="#C" overflow="visible"/></clipPath><path clip-path="url(#D)" fill="#FFF" d="M399.753 95.088h1.289c.189.338.331.572.761.664.431.099 1.096.146 2.328.146h20.151c2.431 0 2.813-.097 3.103-.812h1.28l.855 8.195h-1.381c-.668-4.955-1.618-5.24-4.475-5.24h-6.813v22.434c0 3.24.527 3.76 5.521 3.76v1.287H406.04v-1.287c4.766 0 5.525-.619 5.525-3.76V98.043h-6.807c-2.815 0-3.767.285-4.484 5.238h-1.379l.858-8.193z"/></g><g><defs><path id="E" d="M0 0h535.361v139.786H0z"/></defs><clipPath id="F"><use xlink:href="#E" overflow="visible"/></clipPath><path clip-path="url(#F)" fill="#FFF" d="M435.834 101.042c-2.383-3.42-3.008-3.711-5.957-3.854V95.9h14.335v1.288c-2.573 0-3.335.524-3.335 1.378 0 .623.387 1.432 1.619 3.193l6.237 8.904 5.437-8.623c1.098-1.76 1.565-2.713 1.565-3.379 0-1.039-.901-1.475-3.047-1.475v-1.288h11.201v1.288c-3.481.381-4.334.996-7.387 5.906l-6.433 10.379v6.623c0 3.521.565 4.141 4.522 4.141v1.287H440.21v-1.287c3.62 0 4.567-.334 4.567-4.277v-6.055l-8.943-12.861z"/></g><g><defs><path id="G" d="M0 0h535.361v139.786H0z"/></defs><clipPath id="H"><use xlink:href="#G" overflow="visible"/></clipPath><path clip-path="url(#H)" fill="#FFF" d="M.002 18.139v2.64C0 45.631.308 75.973 11.245 95.975c10.831 19.831 27.124 28.488 49.8 40.527l4.08 2.17 2.031 1.113 2.409-1.402 4.387-2.321c23.526-12.494 38.357-20.576 49.194-40.418 10.497-19.183 10.862-48.048 10.862-72.274v-4.12l.023-4.32-2.07-1.017C115.83 5.922 88.604.042 67.542 0h-.705C46.451.042 18.871 5.856 2.663 13.71L0 14.99l.002 3.149z"/></g><g><defs><path id="I" d="M0 0h535.361v139.786H0z"/></defs><clipPath id="J"><use xlink:href="#I" overflow="visible"/></clipPath><path clip-path="url(#J)" fill="#003468" d="M66.976 136.749l-.056-.041.015-.023.115.08-.017.023z"/></g><g><defs><path id="K" d="M0 0h535.361v139.786H0z"/></defs><clipPath id="L"><use xlink:href="#K" overflow="visible"/></clipPath><path clip-path="url(#L)" fill="#002857" d="M66.969 136.883l-.054-.034-.844-.509c-24.974-13.312-41.744-21.317-52.89-41.711C2.406 74.778 2.371 44.505 2.334 20.36v-3.746l.069-.031.057-.028.977-.471C19.74 8.211 46.67 2.521 66.642 2.461h.701c19.939.06 46.413 5.359 63.167 13.629l1.088.535V20.998c-.036 24.043-.117 53.958-10.807 73.631-11.142 20.394-27.906 28.399-52.861 41.703l-.898.592-.063-.041z"/></g><g><defs><path id="M" d="M0 0h535.361v139.786H0z"/></defs><clipPath id="N"><use xlink:href="#M" overflow="visible"/></clipPath><path clip-path="url(#N)" fill="#FFF" d="M66.977 136.749l.016-.021-.016.021z"/></g><g><defs><path id="O" d="M0 0h535.361v139.786H0z"/></defs><clipPath id="P"><use xlink:href="#O" overflow="visible"/></clipPath><path clip-path="url(#P)" fill="#B0B7BC" d="M67.335 6.153H66.644c-18.873.02-44.974 5.48-60.619 12.787v1.42c-.033 24.085.269 54.064 10.397 72.502 10.384 19.016 25.858 26.645 50.571 39.791 24.711-13.146 40.182-20.775 50.561-39.791 10.044-18.271 10.385-47.888 10.353-71.863v-2.07c-16.02-7.656-41.665-12.756-60.572-12.776"/></g><g><defs><path id="Q" d="M0 0h535.361v139.786H0z"/></defs><clipPath id="R"><use xlink:href="#Q" overflow="visible"/></clipPath><path clip-path="url(#R)" fill="#FFF" d="M67.055 102.774s-1.148 5.182-6.322 6.1c0 0 3.671 5.486 6.322 5.486 2.741 0 6.465-5.486 6.465-5.486-5.077-.775-6.465-6.1-6.465-6.1"/></g><g><defs><path id="S" d="M0 0h535.361v139.786H0z"/></defs><clipPath id="T"><use xlink:href="#S" overflow="visible"/></clipPath><path clip-path="url(#T)" fill="#FFF" d="M28.355 64.195s-5.185-1.147-6.103-6.321c0 0-5.483 3.669-5.483 6.321 0 2.74 5.483 6.466 5.483 6.466.775-5.077 6.103-6.466 6.103-6.466"/></g><g><defs><path id="U" d="M0 0h535.361v139.786H0z"/></defs><clipPath id="V"><use xlink:href="#U" overflow="visible"/></clipPath><path clip-path="url(#V)" fill="#FFF" d="M111.752 57.702c-.775 5.077-6.101 6.466-6.101 6.466s5.183 1.15 6.101 6.325c0 0 5.484-3.673 5.484-6.325 0-2.74-5.484-6.466-5.484-6.466"/></g><g><defs><path id="W" d="M0 0h535.361v139.786H0z"/></defs><clipPath id="X"><use xlink:href="#W" overflow="visible"/></clipPath><path clip-path="url(#X)" fill="#FFF" d="M100.25 89.188L88.516 71.167l10.904.008c7.486 0 8.089 4.941 7.917 7.457 4.561-3.463 2.293-12.52-5.266-12.665-2.879-.057-8.895-.06-16.834-.076l-1.147-1.717 1.171-1.683c7.888.014 14.631-.046 16.876-.086 7.402-.129 9.778-9.145 5.216-12.607.172 2.515-.301 7.444-7.788 7.444l-10.929-.043 11.692-18.159 10.905-10.012H74.332c1.043-4.947 5.093-5.387 7.267-5.237-3.45-4.544-12.703-2.28-12.775 5.21l-.081 16.824-1.623 2.436-1.642-2.572-.079-16.759c-.072-7.49-9.197-9.683-12.647-5.139 2.174-.15 6.149.29 7.193 5.237H22.938l10.917 9.963 11.794 18.208H34.59c-7.486 0-8.046-4.843-7.874-7.358-4.561 3.462-2.172 12.521 5.336 12.607 3.7.043 8.836.07 16.652.086l1.248 1.68-1.076 1.677c-8.218.043-13.296.043-17.169.13-7.558.168-9.38 9.164-5.034 12.821-.172-2.516.172-7.528 7.659-7.528l11.188-.043-11.554 17.905-10.925 10.136h36.792c-1.074 4.856-5.011 5.294-7.169 5.147 3.433 4.521 12.649 2.223 12.722-5.062l.022-16.469 1.713-2.726 1.636 2.67.129 16.578c.086 7.172 9.108 9.457 12.49 5.006-2.161.146-6.095-.291-7.168-5.146h36.953L100.25 89.188z"/></g><g><defs><path id="Y" d="M0 0h535.361v139.786H0z"/></defs><clipPath id="Z"><use xlink:href="#Y" overflow="visible"/></clipPath><path clip-path="url(#Z)" fill="#FFF" d="M67.133 25.474s1.148-5.181 6.322-6.1c0 0-3.672-5.485-6.322-5.485-2.742 0-6.465 5.485-6.465 5.485 5.077.775 6.465 6.1 6.465 6.1"/></g><g><defs><path id="aa" d="M0 0h535.361v139.786H0z"/></defs><clipPath id="ab"><use xlink:href="#aa" overflow="visible"/></clipPath><path clip-path="url(#ab)" fill="#002857" d="M79.933 64.174l17.801-27.331 4.828-4.442H71.19l7.575 4.372-11.658 17.489-11.66-17.489 7.581-4.372H31.643l4.809 4.388 17.833 27.385L36.571 91.37l-4.928 4.571h31.385l-7.581-4.371 11.66-17.489L78.765 91.57l-7.575 4.371h31.372l-4.909-4.564z"/></g></svg>