<?xml version="1.0" encoding="utf-8"?>
<!-- Generator: Adobe Illustrator 16.0.4, SVG Export Plug-In . SVG Version: 6.00 Build 0)  -->
<!DOCTYPE svg PUBLIC "-//W3C//DTD SVG 1.1//EN" "http://www.w3.org/Graphics/SVG/1.1/DTD/svg11.dtd">
<svg version="1.1" id="Layer_1" xmlns="http://www.w3.org/2000/svg" xmlns:xlink="http://www.w3.org/1999/xlink" viewBox="0 0 500 500">
<!--
<path d="M211.854,394.271l38.266-57.413l38.28,57.413l-38.275,22.07L211.854,394.271z M211.854,100.698l38.271-22.08l38.275,22.077
	l-38.28,57.414L211.854,100.698z M3.33,51.121l61.004,55.695l91.623,140.668L64.955,387.191L3.909,443.841h492.366l-60.943-56.593
	l-91.039-139.766l91.443-140.407l60.937-55.955H3.33z"/>
-->
<!--
<path d="M268.209,416.803l-18.086,10.436l-18.082-10.436l-33.618-19.394l51.7-77.552l51.705,77.552L268.209,416.803z
	 M232.041,78.157l18.082-10.432l18.086,10.434L301.83,97.55l-51.705,77.564l-51.702-77.562L232.041,78.157z M428.05,393.357
	l-95.011-145.874l95.463-146.577l43.955-40.352H27.652l43.93,40.104l95.639,146.832l-95,145.826l-44.277,41.095h444.312
	L428.05,393.357z"/>
-->
<polygon points="321.777,247.484 421.236,94.777 448.234,69.986 272.923,69.986 315.262,94.411 250.123,192.116 184.993,94.411 
	227.327,69.986 51.975,69.986 78.832,94.507 178.475,247.484 79.493,399.441 51.975,424.975 227.327,424.975 184.993,400.55 
	250.123,302.848 315.262,400.55 272.923,424.975 448.234,424.975 420.786,399.484 "/>
</svg>
