<?xml version="1.0" standalone="no"?>
<!DOCTYPE svg PUBLIC "-//W3C//DTD SVG 20010904//EN"
 "http://www.w3.org/TR/2001/REC-SVG-20010904/DTD/svg10.dtd">
<svg version="1.0" xmlns="http://www.w3.org/2000/svg"
 width="260.000000pt" height="260.000000pt" viewBox="0 0 260.000000 260.000000"
 preserveAspectRatio="xMidYMid meet">
<metadata>
Created by potrace 1.11, written by Peter Selinger 2001-2013
</metadata>
<g transform="translate(0.000000,260.000000) scale(0.100000,-0.100000)"
fill="#000000" stroke="none">
<path d="M0 1300 l0 -1300 1300 0 1300 0 0 1300 0 1300 -1300 0 -1300 0 0
-1300z m1568 1239 c316 -34 652 -119 876 -222 l69 -31 -6 -321 c-8 -433 -27
-619 -84 -840 -94 -362 -290 -612 -651 -829 -103 -61 -458 -256 -468 -256 -10
0 -404 216 -486 267 -378 234 -573 507 -657 923 -40 202 -52 344 -58 706 l-6
350 79 36 c209 95 549 182 854 217 109 12 425 13 538 0z"/>
<path d="M1160 2513 c-346 -25 -797 -133 -1003 -239 l-30 -16 6 -307 c16 -740
107 -1068 375 -1353 128 -136 285 -243 625 -427 l169 -90 186 100 c324 176
450 260 577 386 300 297 405 673 405 1456 l0 238 -76 36 c-314 145 -873 243
-1234 216z m213 -251 c39 -38 48 -62 21 -62 -21 0 -84 -66 -84 -88 0 -9 -11 2
-25 24 -15 25 -40 49 -61 59 l-36 17 38 40 c65 66 85 68 147 10z m-178 -106
c66 -28 75 -58 75 -251 0 -150 3 -173 19 -194 18 -23 19 -23 29 -5 5 10 12 96
14 189 5 183 12 212 59 247 38 29 99 34 140 12 l34 -17 -35 -10 c-41 -10 -90
-53 -90 -79 0 -17 18 -18 328 -18 l327 0 -102 -98 c-85 -81 -118 -122 -198
-246 -52 -82 -95 -153 -95 -158 0 -12 198 -10 242 2 44 13 88 61 88 98 l1 27
19 -24 c42 -49 14 -148 -51 -183 -29 -15 -58 -18 -200 -18 -136 0 -169 -3
-179 -15 -10 -12 -10 -18 0 -30 10 -12 42 -15 164 -15 83 0 167 -5 187 -10 81
-23 122 -117 83 -191 l-18 -34 -6 30 c-19 89 -51 105 -210 105 -66 0 -120 -3
-120 -6 0 -3 44 -73 98 -156 80 -125 114 -167 196 -244 l99 -94 -326 0 c-179
0 -328 -4 -331 -8 -3 -5 4 -23 14 -40 14 -22 32 -35 66 -45 l47 -13 -38 -18
c-62 -30 -142 -5 -171 53 -6 12 -14 101 -18 199 -8 189 -16 221 -48 182 -16
-19 -18 -44 -18 -189 0 -149 -2 -169 -20 -199 -35 -57 -112 -77 -173 -45 l-32
17 37 9 c35 8 88 55 88 78 0 5 -136 9 -332 9 l-333 0 107 103 c91 86 122 125
203 252 l96 150 -108 3 c-59 2 -122 0 -139 -3 -42 -7 -80 -47 -89 -92 l-6 -35
-17 23 c-21 30 -21 109 1 143 37 56 56 61 250 64 142 3 179 7 184 18 3 8 0 21
-7 29 -10 12 -43 15 -171 15 -87 0 -170 5 -186 11 -69 26 -103 96 -81 165 16
45 38 57 38 19 0 -74 47 -97 209 -103 114 -4 124 -3 117 13 -3 9 -47 81 -97
158 -74 116 -110 160 -192 239 l-102 97 328 1 c359 0 352 -1 302 58 -14 17
-41 34 -63 39 l-37 9 30 17 c37 20 76 21 120 3z m-685 -679 c8 -17 29 -41 47
-52 18 -11 32 -22 32 -25 1 -3 -14 -15 -33 -27 -19 -12 -40 -36 -47 -52 -8
-17 -18 -31 -23 -31 -4 0 -26 17 -47 39 -53 52 -52 82 3 138 23 24 45 43 48
43 3 0 12 -15 20 -33z m1662 -14 c15 -15 30 -40 33 -56 6 -23 1 -34 -39 -74
l-46 -46 -23 34 c-12 18 -37 43 -55 55 l-32 22 35 23 c19 13 42 38 52 56 19
36 30 34 75 -14z m-814 -843 c13 -11 31 -20 38 -20 25 0 15 -25 -25 -64 -54
-52 -81 -51 -138 7 l-46 45 37 17 c22 10 46 34 59 55 l21 38 15 -29 c7 -17 25
-39 39 -49z"/>
<path d="M660 1976 c0 -3 22 -26 49 -53 45 -44 351 -501 351 -524 0 -22 -306
-478 -353 -526 l-51 -53 287 0 c158 0 287 3 287 8 0 4 -29 23 -65 42 l-64 36
101 152 101 152 99 -147 c54 -82 98 -151 98 -155 0 -4 -27 -21 -60 -40 -33
-18 -60 -36 -60 -40 0 -5 129 -8 287 -8 l287 0 -51 53 c-29 28 -122 159 -207
289 l-154 237 155 238 c85 131 178 262 206 291 l51 52 -287 0 c-158 0 -287 -4
-287 -8 0 -5 27 -23 60 -42 33 -19 60 -37 60 -42 0 -17 -194 -298 -200 -291
-18 20 -190 283 -190 291 0 4 27 24 60 43 33 18 60 37 60 42 0 4 -128 7 -285
7 -157 0 -285 -2 -285 -4z"/>
</g>
</svg>
