<svg xmlns="http://www.w3.org/2000/svg" viewBox="0 0 141 99">
  <g fill="#0099cc">
    <path d="M65.6463057,55.8350331 L83.8186016,55.8350331 C85.4692612,55.8350331 85.858662,54.8827431 84.6839527,53.7080338 L74.8325107,43.8565918 C73.6529117,42.6769928 71.7532214,42.6818825 70.5785121,43.8565918 L65.6527911,48.7823128 L64.5725774,47.7020991 C63.3937166,46.5232383 61.4953598,46.5281802 60.3214408,47.7020991 L54.3140751,53.7094648 C53.1352143,54.8883256 53.534035,55.8350331 55.1938281,55.8350331 L65.6463057,55.8350331 Z M19.9295332,81.1727485 C20.4664323,81.6855974 21.1929764,82 21.9928014,82 L116.007199,82 C116.882991,82 117.670053,81.6231894 118.216994,81.0224155 L88.6084797,61.9201483 C88.3764382,61.7704441 88.3096906,61.4609781 88.4593948,61.2289366 C88.609099,60.9968951 88.9185651,60.9301475 89.1506066,61.0798517 L118.758045,80.1814249 C118.91378,79.8175329 119,79.4165284 119,78.995277 L119,20.004723 C119,19.3144072 118.768847,18.6791795 118.380125,18.1723667 L89.1506066,37.0301205 C88.9185651,37.1798247 88.609099,37.1130771 88.4593948,36.8810356 C88.3096906,36.6489941 88.3764382,36.339528 88.6084797,36.1898238 L117.62013,17.47263 C117.154661,17.1733706 116.601135,17 116.007199,17 L21.9928014,17 C21.5188486,17 21.0708817,17.1103548 20.6728948,17.3068396 L49.7710634,36.0798517 C50.0031049,36.2295559 50.0698525,36.5390219 49.9201483,36.7710634 C49.7704441,37.0031049 49.4609781,37.0698525 49.2289366,36.9201483 L19.8147505,17.9432541 C19.3094441,18.4812948 19,19.2066758 19,20.004723 L19,78.995277 C19,79.4907561 19.1190844,79.957855 19.3300437,80.3694599 L49.2289366,61.0798517 C49.4609781,60.9301475 49.7704441,60.9968951 49.9201483,61.2289366 C50.0698525,61.4609781 50.0031049,61.7704441 49.7710634,61.9201483 L19.9295332,81.1727485 Z M15,20.004723 C15,16.1394036 18.125569,13 21.9928014,13 L116.007199,13 C119.873136,13 123,16.1374698 123,20.004723 L123,78.995277 C123,82.8605964 119.874431,86 116.007199,86 L21.9928014,86 C18.1268639,86 15,82.8625302 15,78.995277 L15,20.004723 Z M57.317758,44.294218 C58.7341616,44.294218 59.8823835,43.1459961 59.8823835,41.7295925 C59.8823835,40.3131889 58.7341616,39.1649669 57.317758,39.1649669 C55.9013544,39.1649669 54.7531324,40.3131889 54.7531324,41.7295925 C54.7531324,43.1459961 55.9013544,44.294218 57.317758,44.294218 Z"></path>
  </g>
</svg>