<svg xmlns="http://www.w3.org/2000/svg" xmlns:xlink="http://www.w3.org/1999/xlink" viewBox="0 0 220 200">
	<path fill="#9ea2a2" d="M93.216,163.479l16.837-25.262l16.843,25.262l-16.841,9.711L93.216,163.479z M93.216,34.307l16.839-9.715
		l16.841,9.714l-16.843,25.262L93.216,34.307z M1.465,12.493l26.842,24.506l40.314,61.894L28.58,160.364L1.72,185.29h216.641
		l-26.815-24.901l-40.057-61.497l40.235-61.779l26.812-24.62H1.465z"/>
	<path fill="#FFFFFF" d="M118.012,173.393l-7.958,4.592l-7.956-4.592l-14.792-8.533l22.748-34.123l22.75,34.123L118.012,173.393z
		 M102.098,24.389l7.956-4.59l7.958,4.591l14.793,8.532l-22.75,34.128L87.306,32.923L102.098,24.389z M188.342,163.077
		l-41.805-64.184l42.004-64.494l19.34-17.755H12.167L31.496,34.29l42.081,64.606l-41.8,64.163l-19.482,18.082h195.497
		L188.342,163.077z"/>
	<polygon fill="#0c2340" points="141.582,98.893 185.344,31.702 197.223,20.794 120.086,20.794 138.715,31.541 110.054,74.531 
		81.397,31.541 100.024,20.794 22.869,20.794 34.686,31.583 78.529,98.893 34.977,165.754 22.869,176.989 100.024,176.989 
		81.397,166.242 110.054,123.253 138.715,166.242 120.086,176.989 197.223,176.989 185.146,165.773 "/>
</svg>