<svg xmlns="http://www.w3.org/2000/svg" width="50" height="50" viewBox="0 0 50 50"><path fill="#FFF" d="M1.03 6.488V7.433c0 8.89.109 19.742 4.021 26.897 3.874 7.093 9.702 10.189 17.813 14.497l1.459.774.727.399.862-.502 1.568-.83c8.416-4.469 13.721-7.359 17.597-14.457 3.755-6.861 3.886-17.187 3.886-25.852V6.885l.008-1.545-.74-.364C42.461 2.118 32.723.015 25.188 0h-.251C17.645.015 7.779 2.095 1.981 4.904l-.952.458.001 1.126z"/><path fill="#003468" d="M24.986 48.914l-.02-.016.005-.007.041.029-.006.008z"/><path fill="#002857" d="M24.983 48.962l-.02-.013-.302-.182c-8.933-4.763-14.932-7.625-18.918-14.92-3.854-7.101-3.867-17.93-3.879-26.565v-1.34l.024-.011.021-.01.35-.168C8.09 2.937 17.723.902 24.866.88h.25c7.132.021 16.602 1.917 22.594 4.875l.39.191V7.51c-.013 8.6-.041 19.301-3.865 26.338-3.984 7.295-9.981 10.157-18.907 14.918l-.321.211-.024-.015z"/><path fill="#FFF" d="M24.986 48.914l.006-.008-.006.008z"/><path fill="#B0B7BC" d="M25.114 2.2h-.247C18.116 2.208 8.78 4.161 3.184 6.774v.508c-.011 8.615.096 19.339 3.719 25.934 3.715 6.802 9.25 9.53 18.089 14.233 8.838-4.703 14.373-7.432 18.085-14.233 3.593-6.534 3.716-17.129 3.704-25.705v-.74C41.051 4.032 31.877 2.208 25.114 2.2"/><path fill="#FFF" d="M25.014 36.762s-.411 1.854-2.261 2.182c0 0 1.313 1.964 2.261 1.964.98 0 2.312-1.964 2.312-1.964-1.815-.278-2.312-2.182-2.312-2.182M11.171 22.962s-1.854-.41-2.183-2.261c0 0-1.961 1.312-1.961 2.261 0 .98 1.961 2.312 1.961 2.312.278-1.815 2.183-2.312 2.183-2.312M41.002 20.64c-.277 1.816-2.182 2.313-2.182 2.313s1.854.411 2.182 2.262c0 0 1.961-1.313 1.961-2.262 0-.981-1.961-2.313-1.961-2.313"/><path fill="#FFF" d="M36.889 31.902l-4.197-6.447 3.899.003c2.677 0 2.894 1.769 2.831 2.667 1.633-1.238.82-4.478-1.883-4.529-1.029-.02-3.182-.021-6.021-.027l-.41-.614.418-.602c2.822.005 5.234-.016 6.037-.03 2.647-.046 3.498-3.271 1.865-4.509.063.899-.107 2.662-2.785 2.662l-3.91-.015 4.185-6.495 3.899-3.582h-13.2c.373-1.769 1.82-1.927 2.6-1.873-1.234-1.625-4.544-.816-4.57 1.864l-.028 6.018-.58.871-.588-.92-.028-5.994c-.025-2.679-3.29-3.463-4.523-1.838.777-.054 2.199.104 2.572 1.873H9.234l3.905 3.564 4.218 6.513h-3.956c-2.678 0-2.878-1.732-2.816-2.632-1.632 1.239-.777 4.479 1.909 4.51 1.323.015 3.161.024 5.956.03l.447.601-.385.6c-2.94.016-4.756.016-6.142.046-2.704.061-3.355 3.277-1.801 4.586-.062-.9.062-2.693 2.74-2.693l4.002-.016-4.133 6.404-3.908 3.627h13.16c-.384 1.735-1.792 1.894-2.564 1.841 1.228 1.616 4.525.795 4.551-1.81l.008-5.893.612-.975.585.955.046 5.931c.031 2.563 3.259 3.383 4.468 1.79-.772.053-2.181-.104-2.563-1.842H40.79l-3.901-3.62z"/><path fill="#FFF" d="M25.042 9.112s.411-1.853 2.261-2.182c0 0-1.312-1.962-2.261-1.962-.98 0-2.312 1.962-2.312 1.962 1.815.277 2.312 2.182 2.312 2.182"/><path fill="#002857" d="M29.621 22.954l6.367-9.776 1.727-1.589H26.493l2.71 1.564-4.17 6.256-4.171-6.256 2.712-1.564H12.348l1.719 1.57 6.379 9.795-6.336 9.728-1.762 1.634h11.226l-2.712-1.562 4.171-6.256 4.17 6.256-2.71 1.562h11.222l-1.756-1.63z"/></svg>