<?xml version="1.0" encoding="utf-8"?>
<!-- Generator: Adobe Illustrator 16.0.0, SVG Export Plug-In . SVG Version: 6.00 Build 0)  -->
<!DOCTYPE svg PUBLIC "-//W3C//DTD SVG 1.1//EN" "http://www.w3.org/Graphics/SVG/1.1/DTD/svg11.dtd">
<svg version="1.1" id="Layer_1" xmlns="http://www.w3.org/2000/svg" xmlns:xlink="http://www.w3.org/1999/xlink" x="0px" y="0px"
	 width="100px" height="100px" viewBox="0 0 100 100" enable-background="new 0 0 100 100" xml:space="preserve">
<path fill="#59BDDE" d="M93.557,42.556c-3.354,0-6.16,2.39-6.805,5.557h-8.545c-0.326-6.623-2.959-12.621-7.129-17.227l6.154-6.152
	c1.099,0.727,2.41,1.155,3.822,1.155c3.829,0,6.944-3.115,6.944-6.944C88,15.116,84.885,12,81.057,12
	c-3.83,0-6.945,3.116-6.945,6.944c0,1.414,0.43,2.727,1.158,3.825l-6.154,6.152c-4.604-4.168-10.604-6.801-17.227-7.129v-8.545
	c3.166-0.646,5.557-3.451,5.557-6.804c0-3.829-3.115-6.944-6.944-6.944s-6.944,3.116-6.944,6.944c0,3.353,2.39,6.158,5.556,6.804
	v8.545c-6.623,0.328-12.621,2.96-17.227,7.129l-6.153-6.152c0.728-1.099,1.157-2.412,1.157-3.825c0-3.829-3.115-6.944-6.944-6.944
	C16.116,12,13,15.116,13,18.944c0,3.829,3.116,6.944,6.944,6.944c1.413,0,2.725-0.428,3.823-1.155l6.154,6.152
	c-4.168,4.606-6.801,10.604-7.129,17.227h-8.543c-0.645-3.167-3.451-5.557-6.804-5.557c-3.829,0-6.944,3.115-6.944,6.944
	s3.116,6.944,6.944,6.944c3.353,0,6.158-2.391,6.804-5.555h8.544c0.328,6.621,2.96,12.62,7.129,17.225l-6.154,6.154
	c-1.098-0.729-2.411-1.158-3.824-1.158c-3.829,0-6.944,3.115-6.944,6.945C13,83.883,16.116,87,19.944,87
	c3.829,0,6.944-3.115,6.944-6.943c0-1.414-0.429-2.726-1.156-3.822l6.154-6.155c4.605,4.17,10.603,6.801,17.225,7.129v8.545
	c-3.166,0.646-5.556,3.451-5.556,6.804c0,3.829,3.115,6.944,6.944,6.944s6.944-3.115,6.944-6.944c0-3.353-2.391-6.158-5.557-6.804
	v-8.545c6.622-0.328,12.619-2.959,17.227-7.129l6.152,6.155c-0.728,1.098-1.156,2.408-1.156,3.822c0,3.828,3.115,6.943,6.945,6.943
	C84.883,87,88,83.885,88,80.057c0-3.83-3.115-6.945-6.943-6.945c-1.414,0-2.728,0.43-3.826,1.156l-6.151-6.152
	c4.168-4.604,6.801-10.604,7.129-17.225h8.545c0.646,3.164,3.451,5.555,6.804,5.555c3.83,0,6.944-3.115,6.944-6.944
	S97.385,42.556,93.557,42.556z"/>
<path fill="#FFFFFF" d="M81.057,14.778c2.297,0,4.166,1.869,4.166,4.167c0,2.298-1.869,4.167-4.166,4.167
	c-2.299,0-4.168-1.869-4.168-4.167C76.889,16.647,78.758,14.778,81.057,14.778z"/>
<path fill="#FFFFFF" d="M19.944,23.111c-2.297,0-4.167-1.869-4.167-4.167c0-2.297,1.869-4.167,4.167-4.167
	c2.298,0,4.167,1.869,4.167,4.167C24.111,21.242,22.242,23.111,19.944,23.111z"/>
<path fill="#FFFFFF" d="M7.444,53.667c-2.297,0-4.167-1.869-4.167-4.167s1.869-4.167,4.167-4.167c2.298,0,4.167,1.869,4.167,4.167
	S9.742,53.667,7.444,53.667z"/>
<path fill="#FFFFFF" d="M19.944,84.223c-2.297,0-4.167-1.869-4.167-4.166c0-2.299,1.869-4.168,4.167-4.168
	c2.298,0,4.167,1.869,4.167,4.168C24.111,82.354,22.242,84.223,19.944,84.223z"/>
<path fill="#FFFFFF" d="M46.333,6.444c0-2.297,1.869-4.167,4.167-4.167s4.167,1.869,4.167,4.167c0,2.298-1.869,4.167-4.167,4.167
	S46.333,8.742,46.333,6.444z"/>
<path fill="#FFFFFF" d="M54.667,92.557c0,2.297-1.869,4.166-4.167,4.166s-4.167-1.869-4.167-4.166c0-2.299,1.869-4.168,4.167-4.168
	S54.667,90.258,54.667,92.557z"/>
<rect x="47.722" y="63.389" fill="#FFFFFF" width="5.555" height="5.555"/>
<path fill="#FFFFFF" d="M57.354,52.335c-2.367,1.853-4.076,3.192-4.076,6.888h-5.555c0-6.402,3.586-9.21,6.208-11.262
	c2.373-1.858,3.516-2.864,3.516-5.405c0-4.868-2.076-6.944-6.944-6.944s-6.944,2.076-6.944,6.944H38c0-7.944,4.556-12.5,12.5-12.5
	c7.943,0,12.5,4.556,12.5,12.5C63,47.915,59.869,50.365,57.354,52.335z"/>
<path fill="#FFFFFF" d="M81.057,75.889c2.297,0,4.166,1.869,4.166,4.168c0,2.297-1.869,4.166-4.166,4.166
	c-2.299,0-4.168-1.869-4.168-4.166C76.889,77.758,78.758,75.889,81.057,75.889z"/>
<path fill="#FFFFFF" d="M93.557,53.667c-2.299,0-4.168-1.869-4.168-4.167s1.869-4.167,4.168-4.167c2.297,0,4.166,1.869,4.166,4.167
	S95.854,53.667,93.557,53.667z"/>
</svg>
