<?xml version="1.0" encoding="utf-8"?>
<!-- Generator: Adobe Illustrator 16.0.4, SVG Export Plug-In . SVG Version: 6.00 Build 0)  -->
<!DOCTYPE svg PUBLIC "-//W3C//DTD SVG 1.1//EN" "http://www.w3.org/Graphics/SVG/1.1/DTD/svg11.dtd">
<svg version="1.1" id="Layer_1" xmlns="http://www.w3.org/2000/svg" xmlns:xlink="http://www.w3.org/1999/xlink" x="0px" y="0px"
	 width="100px" height="100px" viewBox="82 -3 100 100" enable-background="new 82 -3 100 100" xml:space="preserve">
<g>
	<path fill="#5ABDDE" d="M158.953,15.062h2.801l0.849-3.077h3.192c0,0,0.08,45.947,0.08,68.98c-22.774,0-45.415,0-68.284,0
		c0-22.874,0-45.896,0-68.98c1.021,0,2.06,0,3.271,0c0.207,0.886,0.449,1.975,0.697,3.039c1.004,0,1.897,0,2.923,0
		c0.213-1.04,0.435-2.023,0.643-3.039c1.092,0,2.06,0,3.213,0c0.168,0.928,0.314,1.833,0.53,3.027
		c0.918,0.042,1.877,0.087,2.943,0.137c0.275-1.175,0.425-2.153,0.661-3.163c1.105,0,2.208,0,3.553,0
		c0,3.643-0.034,17.974-0.034,17.974l14.365-7.036h2.251l14.673,7.066l-0.109-18.004h3.375l1.036,2.969h2.927l0.565-2.969h3.119
		L158.953,15.062z M142.907,76.622c0-3.664,0.024-7.058-0.008-10.452c-0.022-2.409-1.494-3.973-3.503-4.802
		c-5.232-2.161-10.564-2.221-15.825-0.033c-1.863,0.774-3.288,2.262-3.407,4.282c-0.211,3.583-0.06,7.187-0.06,11.005
		C127.798,76.622,135.186,76.622,142.907,76.622z M132.899,34.135v7.837h6.134v-7.837H132.899z M132.868,45.039l0.032,7.867
		l6.167,0.028v-7.895H132.868z M130.018,34.135h-5.818v7.837h5.818V34.135z M130.018,52.906v-7.867h-5.818v7.867H130.018z
		 M108.548,35.208v-7.85h-3.686v7.85H108.548z M154.775,27.358v7.85h3.8v-7.85H154.775z M108.548,52.906h-3.686v8.287h3.686V52.906z
		 M154.775,61.192h3.8v-8.287h-3.8V61.192z"/>
</g>
<rect x="104.862" y="27.358" fill="#FFFFFF" width="3.686" height="7.85"/>
<rect x="104.862" y="52.906" fill="#FFFFFF" width="3.686" height="8.287"/>
<rect x="124.199" y="34.135" fill="#FFFFFF" width="5.818" height="7.837"/>
<rect x="132.899" y="34.135" fill="#FFFFFF" width="6.134" height="7.837"/>
<rect x="132.868" y="45.039" fill="#FFFFFF" width="6.199" height="7.894"/>
<rect x="124.199" y="45.039" fill="#FFFFFF" width="5.818" height="7.867"/>
<rect x="154.775" y="27.358" fill="#FFFFFF" width="3.8" height="7.85"/>
<rect x="154.775" y="52.906" fill="#FFFFFF" width="3.8" height="8.287"/>
</svg>
