<?xml version="1.0" encoding="utf-8"?>
<!-- Generator: Adobe Illustrator 16.0.4, SVG Export Plug-In . SVG Version: 6.00 Build 0)  -->
<!DOCTYPE svg PUBLIC "-//W3C//DTD SVG 1.1//EN" "http://www.w3.org/Graphics/SVG/1.1/DTD/svg11.dtd">
<svg version="1.1" id="Layer_1" xmlns="http://www.w3.org/2000/svg" xmlns:xlink="http://www.w3.org/1999/xlink" x="0px" y="0px"
	 width="312px" height="330px" viewBox="0 0 312 330" enable-background="new 0 0 312 330" xml:space="preserve">
<g>
	<defs>
		<rect id="SVGID_1_" x="-3.558" y="4.29" width="337.43" height="443.736"/>
	</defs>
	<clipPath id="SVGID_2_">
		<use xlink:href="#SVGID_1_"  overflow="visible"/>
	</clipPath>
	<path clip-path="url(#SVGID_2_)" fill="#003468" d="M-3.558,400.62c3.89,0.158,7.782-1.828,10.351-4.807l16.058-18.297
		L9.189,360.46c-4.635-5.785-6.124-6.537-12.748-6.872v-2.235h28.479v2.235c-4.635,0-6.786,0.505-6.786,2.569
		c0,0.91,0.497,1.818,2.234,3.975l8.444,10.514l7.367-8.193c3.151-3.484,4.222-5.307,4.222-6.461c0-1.822-1.323-2.403-5.708-2.403
		v-2.235h21.527v2.235c-6.296,0.081-8.284,1.163-13.832,7.536l-11.008,12.664l17.137,21.197c3.644,4.471,5.883,5.463,10.761,5.635
		v2.23H33.532v-2.23c3.56,0.08,5.3-0.424,5.3-2.158c0-0.912-0.661-2.15-2.07-3.807l-11.343-13.99l-11.013,12.494
		c-2.48,2.9-3.312,4.062-3.312,5.137c0,1.658,1.655,2.568,6.379,2.324v2.23H-3.558V400.62z"/>
	<path clip-path="url(#SVGID_2_)" fill="#003468" d="M94.571,378.761l-7.946-20.947l-7.862,20.947H94.571z M60.379,400.62
		c5.544-0.09,6.628-1.002,8.945-7.461l14.982-41.058l-0.66-2.067h9.267l16.145,43.125c2.407,6.459,3.235,7.461,8.448,7.461v2.23
		H92.913v-2.23c6.543,0,8.364-0.666,8.364-3.07c0-0.826-0.327-2.234-1.155-4.391l-3.974-10.262H77.186l-4.054,11.018
		c-0.582,1.566-0.828,2.641-0.828,3.477c0,2.396,1.653,3.473,8.276,3.229v2.23h-20.2V400.62z"/>
	<path clip-path="url(#SVGID_2_)" fill="#003468" d="M122.503,359.968c-2.317-5.717-3.226-6.377-8.526-6.377v-2.238h25.501v2.238
		c-6.791,0.078-7.95,1.82-7.95,3.555c0,1.082,0.413,2.736,1.331,4.971l12.498,30.715l12.169-29.309
		c1.493-3.555,1.905-5.135,1.905-6.377c0-2.729-2.151-3.555-7.456-3.555v-2.238H172.1v2.238c-5.881,0-6.959,3.062-9.604,9.436
		l-17.14,41.15h-5.048L122.503,359.968z"/>
	<path clip-path="url(#SVGID_2_)" fill="#003468" d="M178.677,351.353h23.098v2.238c-5.55,0-7.124,1.238-7.124,7.121v32.203
		c0,6.211,1.164,7.863,7.124,7.709v2.227h-23.098v-2.227c6.543,0.154,6.788-2.412,6.788-7.131v-33.691
		c0-4.477-1.078-6.296-6.788-6.211V351.353z"/>
	<path clip-path="url(#SVGID_2_)" fill="#003468" d="M212.599,402.851v-2.227c6.703,0,8.362-1.09,8.362-5.721v-35.686
		c0-5.463-2.73-5.627-8.362-5.627v-2.238h42.303l0.752,12.424h-2.242L253,362.04c-1.656-6.789-2.979-6.961-8.28-6.961h-14.567
		v19.291h12.832c4.801,0,5.709-0.582,6.209-6.293h2.231v16.646h-2.231c-0.582-5.885-1.656-6.625-6.209-6.625h-12.832v15.061
		c0,5.137,0.659,5.967,4.888,5.967h9.187c8.361,0,10.015-1.158,12.25-9.275h2.235l-1.241,13H212.599z"/>
	<path clip-path="url(#SVGID_2_)" fill="#003468" d="M285.357,379.173c0.578,0.08,2.15,0.248,2.647,0.248
		c11.005-0.496,14.815-4.723,14.815-13.168c0-8.359-4.468-13.324-13.489-13.324c-1.241,0-3.229,0.162-3.974,0.328V379.173z
		 M285.357,392.419c0,7.119,0.909,8.445,8.44,8.201v2.23h-25.336v-2.23c6.961,0.244,7.7-1.664,7.7-7.123v-33.201
		c0-5.387-0.909-6.708-7.7-6.708v-2.235c1.909,0,6.127-0.334,11.844-0.578c4.386-0.164,8.444-0.164,10.098-0.164
		c16.724,0,22.439,7.283,22.439,14.818c0,6.125-3.477,10.602-10.434,13.496c1.33,0.91,4.889,4.387,6.213,5.711l5.382,5.379
		c7.361,7.377,12.992,10.686,19.868,11.432v2.316c-16.31,0.414-20.365-2.482-27.822-9.939l-4.383-4.385
		c-4.222-4.227-5.467-5.381-8.943-7.951c-2.402,0.17-5.216,0.246-7.366,0V392.419z"/>
	<path clip-path="url(#SVGID_2_)" fill="#003468" d="M32.721,421.47h11.825v1.129c-3.085,0-3.663,0.662-3.663,3.572v11.201
		c0,5.533,3.698,8.08,8.902,8.08c4.621,0,8.948-2.002,8.948-8.166v-11.115c0-3.238-0.617-3.572-3.997-3.572v-1.129h10.074v1.129
		c-3.163,0-3.781,0.662-3.781,3.572v11.582c0,6.529-5.039,10.273-12.618,10.273c-7.907,0-12.157-3.785-12.157-10.564v-11.707
		c0-2.535-0.662-3.156-3.534-3.156V421.47z"/>
	<path clip-path="url(#SVGID_2_)" fill="#003468" d="M72.609,426.177v15.982c0,3.25,0.413,4.289,4.156,4.08v1.123H66.82v-1.123
		c2.999,0.086,3.499-0.879,3.499-3.582v-18.73c-1.002-0.871-1.917-1.201-3.499-1.328v-1.129h7.536l18.564,19.609v-14.902
		c0-3.121-0.501-3.621-4.122-3.578v-1.129h10.074v1.129c-2.787,0-3.664,0.5-3.664,3.66v21.355h-2.244L72.609,426.177z"/>
	<path clip-path="url(#SVGID_2_)" fill="#003468" d="M102.286,421.47h11.61v1.129c-2.786,0-3.578,0.621-3.578,3.572v16.199
		c0,3.117,0.585,3.955,3.578,3.869v1.119h-11.61v-1.119c3.287,0.086,3.415-1.207,3.415-3.582v-16.939
		c0-2.25-0.542-3.166-3.415-3.119V421.47z"/>
	<path clip-path="url(#SVGID_2_)" fill="#003468" d="M120.568,425.802c-1.168-2.873-1.626-3.203-4.288-3.203v-1.129h12.817v1.129
		c-3.412,0.039-3.994,0.912-3.994,1.791c0,0.535,0.207,1.365,0.665,2.498l6.282,15.441l6.121-14.738
		c0.749-1.789,0.957-2.578,0.957-3.201c0-1.383-1.083-1.791-3.743-1.791v-1.129h10.112v1.129c-2.954,0-3.491,1.535-4.825,4.744
		l-8.621,20.684h-2.535L120.568,425.802z"/>
	<path clip-path="url(#SVGID_2_)" fill="#003468" d="M146.968,447.358v-1.119c3.367,0,4.199-0.543,4.199-2.867v-17.947
		c0-2.746-1.369-2.826-4.199-2.826v-1.129h21.272l0.37,6.248h-1.124l-0.21-0.877c-0.833-3.416-1.501-3.494-4.156-3.494h-7.328v9.695
		h6.449c2.415,0,2.872-0.291,3.124-3.156h1.123v8.361h-1.123c-0.291-2.955-0.831-3.334-3.124-3.334h-6.449v7.586
		c0,2.572,0.331,2.988,2.452,2.988h4.622c4.203,0,5.038-0.58,6.161-4.658h1.127l-0.628,6.529H146.968z"/>
	<path clip-path="url(#SVGID_2_)" fill="#003468" d="M182.418,435.46c0.29,0.043,1.088,0.127,1.333,0.127
		c5.538-0.252,7.45-2.377,7.45-6.619c0-4.201-2.242-6.709-6.783-6.709c-0.625,0-1.622,0.084-2,0.172V435.46z M182.418,442.116
		c0,3.58,0.46,4.248,4.25,4.123v1.119h-12.745v-1.119c3.506,0.125,3.874-0.83,3.874-3.582v-16.691c0-2.705-0.453-3.367-3.874-3.367
		v-1.129c0.965,0,3.087-0.162,5.957-0.291c2.211-0.084,4.247-0.084,5.084-0.084c8.405,0,11.272,3.672,11.272,7.455
		c0,3.076-1.75,5.328-5.241,6.785c0.667,0.455,2.456,2.205,3.123,2.867l2.707,2.707c3.708,3.705,6.532,5.373,9.984,5.744v1.164
		c-8.199,0.209-10.24-1.248-13.983-4.996l-2.202-2.199c-2.126-2.127-2.751-2.709-4.496-3.998c-1.213,0.08-2.622,0.121-3.71,0
		V442.116z"/>
	<path clip-path="url(#SVGID_2_)" fill="#003468" d="M206.883,440.538h1.253c1.043,3.822,3.622,5.99,7.198,5.99
		c3.037,0,5.166-1.791,5.166-4.285c0-5.834-13.116-8.115-13.116-15.355c0-3.584,3.169-6.082,7.617-6.082
		c1.377,0,2.381,0.172,3.208,0.336c0.834,0.17,1.496,0.328,2.209,0.328c0.536,0,0.827-0.127,1.168-0.492h1.036l0.915,6.449h-1.248
		c-1.249-3.293-3.828-5.289-6.783-5.289c-2.669,0-4.081,1.586-4.081,3.412c0,5.578,13.148,7.246,13.148,15.279
		c0,4.289-3.619,7.197-8.941,7.197c-3.121,0-4.412-0.746-5.583-0.746c-0.49,0-0.831,0.121-1.125,0.453h-0.997L206.883,440.538z"/>
	<path clip-path="url(#SVGID_2_)" fill="#003468" d="M228.417,421.47h11.612v1.129c-2.788,0-3.58,0.621-3.58,3.572v16.199
		c0,3.117,0.586,3.955,3.58,3.869v1.119h-11.612v-1.119c3.282,0.086,3.416-1.207,3.416-3.582v-16.939
		c0-2.25-0.543-3.166-3.416-3.119V421.47z"/>
	<path clip-path="url(#SVGID_2_)" fill="#003468" d="M243.406,420.763h1.128c0.167,0.297,0.291,0.502,0.668,0.582
		c0.369,0.084,0.951,0.131,2.029,0.131h17.616c2.121,0,2.458-0.09,2.706-0.713h1.122l0.752,7.162h-1.213
		c-0.582-4.33-1.413-4.578-3.91-4.578h-5.954v19.605c0,2.828,0.461,3.283,4.824,3.283v1.127h-14.268v-1.127
		c4.157,0,4.824-0.539,4.824-3.283v-19.605h-5.946c-2.463,0-3.293,0.248-3.918,4.578h-1.205L243.406,420.763z"/>
	<path clip-path="url(#SVGID_2_)" fill="#003468" d="M274.94,425.966c-2.082-2.988-2.628-3.244-5.205-3.371v-1.125h12.529v1.125
		c-2.255,0-2.917,0.461-2.917,1.207c0,0.545,0.337,1.248,1.416,2.791l5.449,7.781l4.75-7.535c0.958-1.535,1.37-2.371,1.37-2.953
		c0-0.908-0.788-1.291-2.662-1.291v-1.125h9.787v1.125c-3.038,0.334-3.782,0.873-6.454,5.162l-5.624,9.07v5.787
		c0,3.082,0.497,3.621,3.956,3.621v1.123h-12.567v-1.123c3.161,0,3.992-0.291,3.992-3.736v-5.291L274.94,425.966z"/>
	<path clip-path="url(#SVGID_2_)" fill="#003468" d="M3.88,45.695v2.863v1.284v1.068v0.81
		c-0.007,56.734,0.697,125.998,25.665,171.663c24.722,45.264,61.918,65.033,113.682,92.511l9.315,4.958l4.632,2.544l5.502-3.201
		l10.014-5.309c53.708-28.518,87.563-46.967,112.3-92.26c23.963-43.792,24.799-109.688,24.799-164.989v-0.643V51.13v-2.896
		l0.051-9.859l-4.727-2.328c-36.82-18.24-98.974-31.662-147.051-31.758h-0.8h-0.811c-46.539,0.096-109.5,13.369-146.5,31.296
		l-6.078,2.92L3.88,45.695z"/>
</g>
<polygon fill="#003468" points="156.642,316.366 156.764,316.456 156.896,316.548 156.936,316.497 156.673,316.317 "/>
<g>
	<defs>
		<rect id="SVGID_3_" x="-3.558" y="4.29" width="337.43" height="443.736"/>
	</defs>
	<clipPath id="SVGID_4_">
		<use xlink:href="#SVGID_3_"  overflow="visible"/>
	</clipPath>
	<path clip-path="url(#SVGID_4_)" fill="#FFFFFF" d="M156.75,316.771l-0.124-0.082l-1.926-1.163
		c-57.01-30.384-95.295-48.663-120.738-95.216C9.364,174.992,9.288,105.881,9.204,50.764v-5.747v-2.803l0.156-0.071l0.13-0.064
		l2.231-1.075c37.214-17.974,98.689-30.963,144.28-31.102h0.801h0.786h0.015c45.52,0.139,105.952,12.237,144.194,31.115l2.487,1.221
		v0.17v0.146v2.463v7.206c-0.08,54.886-0.265,123.174-24.668,168.087c-25.435,46.553-63.706,64.832-120.673,95.199l-2.048,1.35
		L156.75,316.771z"/>
	<path clip-path="url(#SVGID_4_)" fill="#B0B7BC" d="M157.585,18.333h-0.78h-0.797C112.924,18.379,53.342,30.847,17.625,47.521
		v3.243c-0.073,54.982,0.617,123.422,23.737,165.511c23.704,43.413,59.027,60.826,115.443,90.834
		c56.408-30.008,91.729-47.421,115.425-90.834c22.923-41.709,23.703-109.315,23.63-164.049V47.5
		C259.291,30.02,200.747,18.379,157.585,18.333"/>
	<path clip-path="url(#SVGID_4_)" fill="#FFFFFF" d="M156.948,238.901c0,0-2.621,11.829-14.432,13.925
		c0,0,8.378,12.524,14.432,12.524c6.255,0,14.755-12.524,14.755-12.524C160.115,251.059,156.948,238.901,156.948,238.901"/>
	<path clip-path="url(#SVGID_4_)" fill="#FFFFFF" d="M68.602,150.834c0,0-11.836-2.618-13.933-14.43c0,0-12.516,8.377-12.516,14.43
		c0,6.255,12.516,14.759,12.516,14.759C56.443,154.006,68.602,150.834,68.602,150.834"/>
	<path clip-path="url(#SVGID_4_)" fill="#FFFFFF" d="M258.982,136.011c-1.767,11.591-13.93,14.762-13.93,14.762
		s11.836,2.622,13.93,14.433c0,0,12.521-8.38,12.521-14.433C271.502,144.515,258.982,136.011,258.982,136.011"/>
	<path clip-path="url(#SVGID_4_)" fill="#FFFFFF" d="M232.724,207.888l-26.787-41.138l24.889,0.018
		c17.094,0,18.47,11.275,18.076,17.019c10.413-7.901,5.234-28.575-12.024-28.912c-6.57-0.125-20.3-0.136-38.424-0.171l-2.618-3.92
		l2.671-3.839c18.006,0.029,33.401-0.106,38.528-0.199c16.891-0.294,22.316-20.876,11.906-28.777
		c0.391,5.741-0.688,16.991-17.782,16.991l-24.949-0.1l26.694-41.453l24.894-22.857h-84.242
		c2.383-11.289,11.63-12.293,16.593-11.956c-7.875-10.37-29.002-5.201-29.162,11.896l-0.186,38.406l-3.706,5.56l-3.749-5.868
		l-0.179-38.261c-0.164-17.097-20.996-22.103-28.868-11.733c4.958-0.337,14.034,0.667,16.418,11.956h-84.48l24.922,22.747
		l26.922,41.563H82.837c-17.09,0-18.369-11.055-17.976-16.796c-10.41,7.902-4.959,28.582,12.18,28.781
		c8.448,0.1,20.172,0.157,38.015,0.199l2.848,3.832l-2.456,3.828c-18.762,0.1-30.352,0.1-39.195,0.294
		c-17.25,0.387-21.414,20.922-11.492,29.274c-0.392-5.748,0.396-17.19,17.486-17.19l25.539-0.1L81.413,207.86L56.473,231h83.985
		c-2.453,11.083-11.438,12.084-16.364,11.751c7.838,10.321,28.877,5.073,29.044-11.552l0.046-37.594l3.913-6.227l3.731,6.095
		l0.299,37.846c0.195,16.378,20.794,21.597,28.514,11.432c-4.935,0.333-13.914-0.667-16.363-11.751h84.356L232.724,207.888z"/>
	<path clip-path="url(#SVGID_4_)" fill="#FFFFFF" d="M157.125,62.441c0,0,2.62-11.829,14.43-13.926c0,0-8.381-12.521-14.43-12.521
		c-6.259,0-14.758,12.521-14.758,12.521C153.956,50.286,157.125,62.441,157.125,62.441"/>
</g>
<polygon fill="#003468" points="186.345,150.784 226.979,88.394 238.006,78.25 166.384,78.25 183.681,88.234 157.066,128.159 
	130.447,88.234 147.754,78.25 76.107,78.25 87.086,88.27 127.795,150.784 87.358,212.863 76.107,223.304 147.754,223.304 
	130.447,213.324 157.066,173.399 183.681,213.324 166.384,223.304 238.006,223.304 226.794,212.88 "/>
<rect x="-42.693" y="-6.978" fill="none" width="414.286" height="485.714"/>
</svg>
